<svg width="97" height="41" viewBox="0 0 97 41" fill="none" xmlns="http://www.w3.org/2000/svg">
<g id="Logo">
<path d="M16.1074 26.0868C16.8307 26.0868 17.4288 26.3404 17.9018 26.8475C18.4025 27.3248 18.6529 27.9512 18.6529 28.7268C18.6529 29.4726 18.4025 30.099 17.9018 30.6061C17.4288 31.0834 16.8307 31.3221 16.1074 31.3221H2.54547C1.82217 31.3221 1.21014 31.0685 0.709394 30.5614C0.236465 30.0245 0 29.3682 0 28.5926V2.7295C0 1.9539 0.250374 1.31255 0.751123 0.805425C1.25187 0.268475 1.89172 0 2.67066 0C3.33832 0 3.92253 0.268475 4.42328 0.805425C4.95185 1.31255 5.21613 1.9539 5.21613 2.7295V26.8475L4.29809 26.0868H16.1074Z" fill="#00112C"/>
<path d="M44.6719 19.3749C44.6719 21.8211 44.1573 23.9838 43.1279 25.8631C42.1264 27.7126 40.7633 29.1594 39.0385 30.2034C37.3415 31.2475 35.4359 31.7695 33.3216 31.7695C31.2073 31.7695 29.2878 31.2475 27.563 30.2034C25.866 29.1594 24.5029 27.7126 23.4736 25.8631C22.4721 23.9838 21.9713 21.8211 21.9713 19.3749C21.9713 16.9288 22.4721 14.781 23.4736 12.9315C24.5029 11.0522 25.866 9.59052 27.563 8.54646C29.2878 7.47256 31.2073 6.93561 33.3216 6.93561C35.4359 6.93561 37.3415 7.47256 39.0385 8.54646C40.7633 9.59052 42.1264 11.0522 43.1279 12.9315C44.1573 14.781 44.6719 16.9288 44.6719 19.3749ZM39.6644 19.3749C39.6644 17.8536 39.3723 16.541 38.7881 15.4373C38.2317 14.3038 37.4667 13.4238 36.493 12.7973C35.5472 12.1709 34.49 11.8576 33.3216 11.8576C32.1532 11.8576 31.0822 12.1709 30.1085 12.7973C29.1626 13.4238 28.3976 14.3038 27.8134 15.4373C27.257 16.541 26.9788 17.8536 26.9788 19.3749C26.9788 20.8665 27.257 22.179 27.8134 23.3126C28.3976 24.4163 29.1626 25.2814 30.1085 25.9078C31.0822 26.5343 32.1532 26.8475 33.3216 26.8475C34.49 26.8475 35.5472 26.5343 36.493 25.9078C37.4667 25.2814 38.2317 24.4163 38.7881 23.3126C39.3723 22.179 39.6644 20.8665 39.6644 19.3749Z" fill="#00112C"/>
<path d="M58.3183 6.93561C59.4867 6.93561 60.5578 7.1295 61.5314 7.5173C62.5051 7.9051 63.3397 8.3973 64.0352 8.99391C64.7585 9.59052 65.3149 10.2021 65.7043 10.8285C66.1216 11.4251 66.3303 11.9322 66.3303 12.3498L65.2453 12.9315V9.6651C65.2453 8.88951 65.4818 8.24815 65.9547 7.74103C66.4276 7.20408 67.0257 6.93561 67.7491 6.93561C68.4724 6.93561 69.0705 7.18917 69.5434 7.69629C70.0163 8.2034 70.2528 8.85968 70.2528 9.6651V29.577C70.2528 32.1723 69.7242 34.2455 68.6671 35.7967C67.6378 37.3777 66.2746 38.5112 64.5776 39.1973C62.8807 39.9133 61.0585 40.2713 59.1111 40.2713C58.5548 40.2713 57.8315 40.1967 56.9412 40.0475C56.051 39.8984 55.2025 39.7194 54.3958 39.5106C53.589 39.3018 52.977 39.1079 52.5597 38.9289C51.7251 38.5411 51.1409 38.0489 50.8071 37.4523C50.501 36.8855 50.4454 36.274 50.6401 35.6177C50.8905 34.7526 51.2939 34.156 51.8503 33.8279C52.4067 33.5295 52.9909 33.4997 53.6029 33.7384C53.8811 33.8279 54.3401 34.0068 54.98 34.2753C55.6198 34.5438 56.3153 34.7824 57.0664 34.9912C57.8454 35.2299 58.5269 35.3492 59.1111 35.3492C61.1976 35.3492 62.7416 34.9018 63.7431 34.0068C64.7446 33.1119 65.2453 31.8739 65.2453 30.2929V26.4L65.7461 26.8028C65.7461 27.1906 65.5513 27.6678 65.1618 28.2346C64.8002 28.7716 64.2855 29.3085 63.6179 29.8455C62.978 30.3824 62.213 30.8448 61.3228 31.2326C60.4326 31.5906 59.4867 31.7695 58.4852 31.7695C56.51 31.7695 54.7296 31.2475 53.1439 30.2034C51.5582 29.1295 50.3063 27.6678 49.3883 25.8183C48.4702 23.939 48.0112 21.7912 48.0112 19.3749C48.0112 16.9288 48.4702 14.781 49.3883 12.9315C50.3063 11.0522 51.5443 9.59052 53.1022 8.54646C54.66 7.47256 56.3988 6.93561 58.3183 6.93561ZM59.1111 11.8576C57.8593 11.8576 56.7604 12.1858 55.8145 12.8421C54.8687 13.4983 54.1315 14.3932 53.6029 15.5268C53.0743 16.6604 52.8101 17.9431 52.8101 19.3749C52.8101 20.777 53.0743 22.0448 53.6029 23.1783C54.1315 24.3119 54.8687 25.2068 55.8145 25.8631C56.7604 26.5194 57.8593 26.8475 59.1111 26.8475C60.3908 26.8475 61.5036 26.5194 62.4495 25.8631C63.3953 25.2068 64.1325 24.3119 64.6611 23.1783C65.1897 22.0448 65.454 20.777 65.454 19.3749C65.454 17.9431 65.1897 16.6604 64.6611 15.5268C64.1325 14.3932 63.3953 13.4983 62.4495 12.8421C61.5036 12.1858 60.3908 11.8576 59.1111 11.8576Z" fill="#00112C"/>
<path d="M96.5072 19.3749C96.5072 21.8211 95.9926 23.9838 94.9632 25.8631C93.9617 27.7126 92.5986 29.1594 90.8738 30.2034C89.1768 31.2475 87.2712 31.7695 85.1569 31.7695C83.0426 31.7695 81.1231 31.2475 79.3983 30.2034C77.7013 29.1594 76.3382 27.7126 75.3089 25.8631C74.3074 23.9838 73.8066 21.8211 73.8066 19.3749C73.8066 16.9288 74.3074 14.781 75.3089 12.9315C76.3382 11.0522 77.7013 9.59052 79.3983 8.54646C81.1231 7.47256 83.0426 6.93561 85.1569 6.93561C87.2712 6.93561 89.1768 7.47256 90.8738 8.54646C92.5986 9.59052 93.9617 11.0522 94.9632 12.9315C95.9926 14.781 96.5072 16.9288 96.5072 19.3749ZM91.4997 19.3749C91.4997 17.8536 91.2076 16.541 90.6234 15.4373C90.067 14.3038 89.302 13.4238 88.3283 12.7973C87.3825 12.1709 86.3253 11.8576 85.1569 11.8576C83.9885 11.8576 82.9174 12.1709 81.9438 12.7973C80.9979 13.4238 80.2329 14.3038 79.6487 15.4373C79.0923 16.541 78.8141 17.8536 78.8141 19.3749C78.8141 20.8665 79.0923 22.179 79.6487 23.3126C80.2329 24.4163 80.9979 25.2814 81.9438 25.9078C82.9174 26.5343 83.9885 26.8475 85.1569 26.8475C86.3253 26.8475 87.3825 26.5343 88.3283 25.9078C89.302 25.2814 90.067 24.4163 90.6234 23.3126C91.2076 22.179 91.4997 20.8665 91.4997 19.3749Z" fill="#00112C"/>
</g>
</svg>
